<?xml version="1.0" standalone="no"?>
<!DOCTYPE svg PUBLIC "-//W3C//DTD SVG 20010904//EN"
 "http://www.w3.org/TR/2001/REC-SVG-20010904/DTD/svg10.dtd">
<svg version="1.0" xmlns="http://www.w3.org/2000/svg"
 width="1024.000000pt" height="1024.000000pt" viewBox="0 0 1024.000000 1024.000000"
 preserveAspectRatio="xMidYMid meet">

<g transform="translate(0.000000,1024.000000) scale(0.100000,-0.100000)"
fill="#000000" stroke="none">
<path d="M3462 8380 c-12 -5 -27 -21 -32 -35 -7 -17 -10 -1151 -10 -3234 l0
-3208 21 -27 20 -26 717 0 716 0 -82 40 c-440 212 -778 682 -867 1205 -48 279
-32 620 42 885 228 823 958 1312 1745 1170 131 -24 325 -95 448 -165 81 -46
172 -114 168 -125 -4 -11 -278 -310 -285 -310 -2 0 -32 20 -66 44 -492 351
-1129 151 -1430 -449 -167 -334 -201 -798 -85 -1165 108 -340 372 -634 665
-740 246 -89 503 -76 728 35 50 25 118 67 152 94 l62 50 59 -62 c138 -146 212
-228 212 -236 0 -14 -107 -108 -174 -154 -34 -23 -92 -59 -131 -79 l-70 -37
403 -1 c389 0 403 1 422 20 20 20 20 29 18 3251 l-3 3231 -24 19 c-23 19 -63
19 -1670 18 -963 0 -1655 -4 -1669 -9z"/>
</g>
</svg>
